<?xml version="1.0" encoding="UTF-8"?>
<svg xmlns="http://www.w3.org/2000/svg" xmlns:xlink="http://www.w3.org/1999/xlink" version="1.2" >
<font id="Agenda Bg Medium">
<font-face  font-family="Agenda Bg" units-per-em="1000" ascent="715" descent="-285" font-style="normal" font-weight="500" font-stretch="normal" cap-height="700" x-height="500" underline-position="-70" underline-thickness="20" />
<missing-glyph  horiz-adv-x="230" d="" />
<glyph glyph-name="NULL" d="" />
<glyph glyph-name="CR" unicode="&#xd;" horiz-adv-x="250" d="" />
<glyph glyph-name="space" unicode="&#x20;" horiz-adv-x="230" d="" />
<glyph glyph-name="exclam" unicode="&#x21;" horiz-adv-x="267" d="M187 638 L80 638 L96 199 L171 182 L187 638 Z M198 50 C198 69 157 110 137 110 C117 110 76 69 76 50 C76 30 117 -11 137 -11 C157 -11 198 30 198 50 L198 50 Z " />
<glyph glyph-name="quotedbl" unicode="&#x22;" horiz-adv-x="313" d="M274 638 L193 638 L209 409 L257 409 L274 638 Z M120 638 L39 638 L54 409 L102 409 L120 638 Z " />
<glyph glyph-name="numbersign" unicode="&#x23;" horiz-adv-x="386" d="M381 379 L381 437 L334 437 L380 638 L315 638 L269 437 L174 437 L220 638 L155 638 L109 437 L30 437 L30 379 L95 379 L67 259 L5 259 L5 201 L53 201 L7 0 L72 0 L118 201 L213 201 L167 0 L232 0 L278 201 L356 201 L356 259 L292 259 L320 379 L381 379 Z M255 379 L227 259 L132 259 L160 379 L255 379 Z " />
<glyph glyph-name="dollar" unicode="&#x24;" horiz-adv-x="465" d="M425 178 C425 274 348 339 238 381 C170 407 132 439 132 483 C132 530 173 572 239 572 C288 572 330 558 366 538 L384 616 C343 640 300 649 254 651 L254 737 L197 737 L197 648 C111 633 43 572 43 475 C43 390 113 326 220 288 C294 262 335 220 335 170 C335 115 289 68 210 68 C146 68 95 94 60 120 L40 37 C86 6 138 -9 197 -12 L197 -97 L254 -97 L254 -9 C348 4 425 65 425 178 L425 178 Z " />
<glyph glyph-name="percent" unicode="&#x25;" horiz-adv-x="696" d="M659 132 C659 215 598 275 517 275 C435 275 374 215 374 132 C374 46 435 -12 517 -12 C598 -12 659 46 659 132 L659 132 Z M585 132 C585 86 554 56 517 56 C479 56 448 86 448 132 C448 177 479 204 517 204 C554 204 585 177 585 132 L585 132 Z M631 626 L587 663 L62 13 L106 -24 L631 626 Z M320 508 C320 591 259 651 178 651 C96 651 35 591 35 508 C35 422 96 364 178 364 C259 364 320 422 320 508 L320 508 Z M246 508 C246 462 215 432 178 432 C140 432 109 462 109 508 C109 553 140 580 178 580 C215 580 246 553 246 508 L246 508 Z " />
<glyph glyph-name="ampersand" unicode="&#x26;" horiz-adv-x="624" d="M619 0 L498 121 C527 160 550 206 567 254 L506 316 C492 272 469 224 438 181 L300 319 C380 365 422 422 422 490 C422 588 338 651 247 651 C159 651 80 588 80 490 C80 436 112 387 160 337 C80 291 40 241 40 160 C40 65 124 -12 243 -12 C322 -12 387 14 439 57 L496 0 L619 0 Z M335 489 C335 449 303 413 241 379 C196 423 167 454 167 495 C167 533 198 573 247 573 C304 573 335 532 335 489 L335 489 Z M379 117 C342 87 298 67 248 67 C184 67 132 108 132 165 C132 217 163 249 218 278 L379 117 Z " />
<glyph glyph-name="quotesingle" unicode="&#x27;" horiz-adv-x="159" d="M120 638 L39 638 L54 409 L102 409 L120 638 Z " />
<glyph glyph-name="parenleft" unicode="&#x28;" horiz-adv-x="249" d="M244 691 L153 711 C83 580 40 432 40 241 C40 45 83 -83 145 -206 L239 -227 C164 -74 129 68 129 242 C129 409 177 569 244 691 L244 691 Z " />
<glyph glyph-name="parenright" unicode="&#x29;" horiz-adv-x="249" d="M209 241 C209 437 166 565 104 688 L10 710 C84 556 120 415 120 240 C120 74 72 -86 5 -208 L95 -229 C166 -97 209 50 209 241 L209 241 Z " />
<glyph glyph-name="asterisk" unicode="&#x2a;" horiz-adv-x="416" d="M402 517 L358 590 L239 540 L249 688 L166 669 L174 540 L39 594 L30 512 L155 480 L62 366 L138 331 L207 440 L287 317 L343 379 L260 480 L402 517 Z " />
<glyph glyph-name="plus" unicode="&#x2b;" horiz-adv-x="454" d="M414 238 L414 316 L270 316 L270 453 L185 453 L185 316 L40 316 L40 238 L185 238 L185 101 L270 101 L270 238 L414 238 Z " />
<glyph glyph-name="comma" unicode="&#x2c;" horiz-adv-x="198" d="M160 50 C160 73 116 110 99 110 C80 110 38 72 38 50 C38 34 68 4 89 0 C89 -37 68 -89 38 -125 L70 -131 C112 -91 160 -5 160 50 L160 50 Z " />
<glyph glyph-name="hyphen" unicode="&#x2d;" horiz-adv-x="330" d="M290 238 L290 316 L40 316 L40 238 L290 238 Z " />
<glyph glyph-name="period" unicode="&#x2e;" horiz-adv-x="198" d="M160 50 C160 69 119 110 99 110 C79 110 38 69 38 50 C38 30 79 -11 99 -11 C119 -11 160 30 160 50 L160 50 Z " />
<glyph glyph-name="slash" unicode="&#x2f;" horiz-adv-x="477" d="M447 640 L380 675 L-30 -127 L37 -162 L447 640 Z " />
<glyph glyph-name="zero" unicode="0" horiz-adv-x="516" d="M476 320 C476 544 372 651 258 651 C142 651 40 544 40 320 C40 94 142 -12 258 -12 C372 -12 476 94 476 320 L476 320 Z M384 320 C384 138 322 69 258 69 C193 69 132 138 132 320 C132 500 193 570 258 570 C322 570 384 500 384 320 L384 320 Z " />
<glyph glyph-name="one" unicode="1" horiz-adv-x="271" d="M206 0 L206 647 L22 630 L5 554 L115 565 L115 0 L206 0 Z " />
<glyph glyph-name="two" unicode="2" horiz-adv-x="461" d="M421 0 L421 78 L185 78 C278 190 387 327 387 450 C387 581 304 651 190 651 C133 651 85 637 45 611 L65 532 C101 557 147 571 191 571 C250 571 295 533 295 453 C295 350 182 190 35 18 L35 0 L421 0 Z " />
<glyph glyph-name="three" unicode="3" horiz-adv-x="432" d="M392 189 C392 302 319 365 250 381 C295 395 340 438 340 507 C340 592 268 651 170 651 C124 651 86 641 48 620 L64 543 C102 565 129 572 167 572 C213 572 249 544 249 499 C249 451 197 411 131 398 L149 323 C156 324 164 324 167 324 C240 324 300 266 300 200 C300 109 226 69 156 69 C119 69 76 81 44 99 L54 10 C85 -3 128 -11 160 -11 C309 -11 392 74 392 189 L392 189 Z " />
<glyph glyph-name="four" unicode="4" horiz-adv-x="482" d="M442 171 L442 245 L367 245 L367 638 L306 638 L5 243 L21 171 L276 171 L276 0 L367 0 L367 171 L442 171 Z M277 478 C276 450 276 425 276 400 L276 245 L100 245 L218 399 C237 424 257 450 275 479 L277 478 Z " />
<glyph glyph-name="five" unicode="5" horiz-adv-x="456" d="M416 195 C416 327 318 407 199 407 C191 407 181 406 173 405 L177 560 L352 560 L369 638 L90 638 L80 310 C110 321 143 327 190 327 C261 327 324 278 324 196 C324 116 261 69 187 69 C143 69 101 80 61 104 L71 14 C97 0 143 -11 192 -11 C339 -11 416 85 416 195 L416 195 Z " />
<glyph glyph-name="six" unicode="6" horiz-adv-x="504" d="M469 197 C469 312 386 403 264 403 C221 403 189 386 165 362 C212 473 306 558 426 618 L336 660 C165 572 40 390 40 220 C40 70 141 -11 257 -11 C379 -11 469 77 469 197 L469 197 Z M377 192 C377 116 325 65 259 65 C193 65 133 125 133 197 C133 208 133 219 134 230 C152 300 208 319 258 319 C328 319 377 264 377 192 L377 192 Z " />
<glyph glyph-name="seven" unicode="7" horiz-adv-x="448" d="M428 638 L5 638 L5 560 L298 560 L56 0 L154 0 L428 638 Z " />
<glyph glyph-name="eight" unicode="8" horiz-adv-x="507" d="M467 177 C467 273 389 335 341 351 C388 368 439 419 439 489 C439 584 359 651 253 651 C147 651 68 584 68 489 C68 416 117 368 166 349 C117 331 40 273 40 177 C40 58 137 -12 253 -12 C369 -12 467 58 467 177 L467 177 Z M352 487 C352 444 317 403 258 386 C199 402 157 443 157 487 C157 537 201 574 254 574 C309 574 352 537 352 487 L352 487 Z M375 180 C375 115 318 68 250 68 C184 68 126 115 126 180 C126 246 192 290 246 306 C302 291 375 246 375 180 L375 180 Z " />
<glyph glyph-name="nine" unicode="9" horiz-adv-x="504" d="M464 420 C464 570 363 651 247 651 C125 651 35 563 35 443 C35 328 118 237 240 237 C284 237 317 254 341 278 C295 166 200 83 78 22 L168 -20 C339 68 464 250 464 420 L464 420 Z M371 437 C371 426 371 416 370 406 C352 336 297 315 246 315 C176 315 127 370 127 442 C127 518 179 569 245 569 C311 569 371 509 371 437 L371 437 Z " />
<glyph glyph-name="colon" unicode="&#x3a;" horiz-adv-x="198" d="M160 403 C160 423 119 464 99 464 C79 464 38 423 38 403 C38 384 79 343 99 343 C119 343 160 384 160 403 L160 403 Z M160 50 C160 69 119 110 99 110 C79 110 38 69 38 50 C38 30 79 -11 99 -11 C119 -11 160 30 160 50 L160 50 Z " />
<glyph glyph-name="semicolon" unicode="&#x3b;" horiz-adv-x="198" d="M160 403 C160 423 119 464 99 464 C79 464 38 423 38 403 C38 384 79 343 99 343 C119 343 160 384 160 403 L160 403 Z M160 50 C160 73 116 110 99 110 C80 110 38 72 38 50 C38 34 68 4 89 0 C89 -37 68 -89 38 -125 L70 -131 C112 -91 160 -5 160 50 L160 50 Z " />
<glyph glyph-name="less" unicode="&#x3c;" horiz-adv-x="454" d="M414 100 L414 182 L113 277 L414 373 L414 455 L40 331 L40 224 L414 100 Z " />
<glyph glyph-name="equal" unicode="&#x3d;" horiz-adv-x="454" d="M414 324 L414 402 L40 402 L40 324 L414 324 Z M414 152 L414 230 L40 230 L40 152 L414 152 Z " />
<glyph glyph-name="greater" unicode="&#x3e;" horiz-adv-x="454" d="M414 224 L414 331 L40 455 L40 373 L341 277 L40 182 L40 100 L414 224 Z " />
<glyph glyph-name="question" unicode="&#x3f;" horiz-adv-x="374" d="M339 491 C339 593 263 651 161 651 C111 651 67 636 35 616 L53 535 C84 555 118 570 162 570 C214 570 242 530 242 500 C242 458 223 431 187 395 C151 358 129 304 129 251 C129 231 131 219 136 200 L218 182 C214 200 213 223 213 242 C213 272 224 303 255 337 C309 396 339 433 339 491 L339 491 Z M241 50 C241 69 201 110 180 110 C160 110 119 69 119 50 C119 30 160 -11 180 -11 C201 -11 241 30 241 50 L241 50 Z " />
<glyph glyph-name="at" unicode="&#x40;" horiz-adv-x="758" d="M718 335 C718 525 553 651 381 651 C209 651 40 528 40 323 C40 116 208 -5 371 -5 C408 -5 440 -2 454 4 L461 67 C437 60 410 57 374 57 C251 57 111 150 111 321 C111 492 248 585 381 585 C511 585 648 484 648 336 C648 237 602 196 555 196 C537 196 523 206 523 236 L523 372 C523 455 464 500 384 500 C340 500 294 486 264 468 L281 402 C309 419 345 432 380 432 C427 432 443 409 443 381 L443 364 L366 357 C306 352 247 313 247 244 C247 187 292 135 364 135 C408 135 449 150 468 196 C478 148 522 135 552 135 C660 135 718 235 718 335 L718 335 Z M443 274 C443 231 409 202 370 202 C341 202 324 222 324 243 C324 276 351 289 383 292 L443 298 L443 274 Z " />
<glyph glyph-name="A" unicode="A" horiz-adv-x="619" d="M599 0 L327 647 L292 647 L20 0 L115 0 L184 165 L432 165 L501 0 L599 0 Z M399 242 L217 242 L280 398 C289 419 300 449 307 476 L309 476 C317 449 327 419 336 398 L399 242 Z " />
<glyph glyph-name="B" unicode="B" horiz-adv-x="521" d="M481 194 C481 276 422 342 363 359 C400 375 422 424 422 471 C422 583 328 638 243 638 L65 638 L65 0 L272 0 C371 0 481 62 481 194 L481 194 Z M326 471 C326 411 280 386 227 386 L157 386 L157 558 L227 558 C280 558 326 532 326 471 L326 471 Z M384 194 C384 115 320 80 252 80 L157 80 L157 308 L252 308 C320 308 384 271 384 194 L384 194 Z " />
<glyph glyph-name="C" unicode="C" horiz-adv-x="604" d="M564 603 C525 625 464 644 378 644 C222 644 40 536 40 319 C40 105 220 -5 378 -5 C458 -5 503 4 543 25 L552 113 C513 91 463 77 389 77 C264 77 138 156 138 317 C138 479 267 558 389 558 C454 558 516 537 547 517 L564 603 Z " />
<glyph glyph-name="D" unicode="D" horiz-adv-x="646" d="M606 319 C606 525 439 638 261 638 L65 638 L65 0 L261 0 C439 0 606 113 606 319 L606 319 Z M507 318 C507 156 388 81 244 81 L163 81 L163 555 L244 555 C388 555 507 480 507 318 L507 318 Z " />
<glyph glyph-name="E" unicode="E" horiz-adv-x="449" d="M444 0 L444 83 L162 83 L162 279 L369 279 L369 362 L162 362 L162 555 L409 555 L409 638 L65 638 L65 0 L444 0 Z " />
<glyph glyph-name="F" unicode="F" horiz-adv-x="423" d="M418 555 L418 638 L65 638 L65 0 L162 0 L162 279 L378 279 L378 362 L162 362 L162 555 L418 555 Z " />
<glyph glyph-name="G" unicode="G" horiz-adv-x="678" d="M623 57 L623 322 L384 322 L384 244 L531 244 L531 103 C501 82 455 70 396 70 C266 70 138 151 138 316 C138 483 270 565 395 565 C462 565 525 544 572 514 L590 600 C543 630 472 651 384 651 C225 651 40 540 40 319 C40 103 218 -12 390 -12 C485 -12 562 8 623 57 L623 57 Z " />
<glyph glyph-name="H" unicode="H" horiz-adv-x="653" d="M588 0 L588 638 L491 638 L491 362 L162 362 L162 638 L65 638 L65 0 L162 0 L162 279 L491 279 L491 0 L588 0 Z " />
<glyph glyph-name="I" unicode="I" horiz-adv-x="247" d="M172 0 L172 638 L75 638 L75 0 L172 0 Z " />
<glyph glyph-name="J" unicode="J" horiz-adv-x="247" d="M172 126 L172 638 L75 638 L75 136 C75 16 18 -48 -81 -66 L-18 -130 C68 -114 172 -34 172 126 L172 126 Z " />
<glyph glyph-name="K" unicode="K" horiz-adv-x="544" d="M532 0 L261 327 L523 638 L414 638 L163 337 L162 337 L162 638 L65 638 L65 0 L162 0 L162 299 L163 299 L407 0 L532 0 Z " />
<glyph glyph-name="L" unicode="L" horiz-adv-x="448" d="M443 0 L443 83 L162 83 L162 638 L65 638 L65 0 L443 0 Z " />
<glyph glyph-name="M" unicode="M" horiz-adv-x="820" d="M775 0 L718 638 L658 638 L490 310 C463 257 432 195 412 146 L410 146 C389 195 355 262 330 310 L160 638 L100 638 L45 0 L131 0 L156 288 C159 326 164 382 166 431 L168 431 C190 384 217 327 239 285 L389 -5 L425 -5 L573 285 C594 326 625 388 645 433 L647 433 C649 386 653 331 657 288 L683 0 L775 0 Z " />
<glyph glyph-name="N" unicode="N" horiz-adv-x="702" d="M637 -14 L637 638 L540 638 L540 336 C540 290 540 235 542 186 L540 185 C501 233 443 297 406 338 L132 638 L65 638 L65 0 L162 0 L162 320 C162 368 162 422 160 480 L162 481 C206 429 261 365 309 313 L608 -14 L637 -14 Z " />
<glyph glyph-name="O" unicode="O" horiz-adv-x="756" d="M716 320 C716 525 548 651 378 651 C208 651 40 525 40 320 C40 113 208 -12 378 -12 C548 -12 716 113 716 320 L716 320 Z M618 318 C618 160 494 70 378 70 C260 70 138 160 138 318 C138 476 260 565 378 565 C494 565 618 476 618 318 L618 318 Z " />
<glyph glyph-name="P" unicode="P" horiz-adv-x="494" d="M459 459 C459 580 357 638 267 638 L65 638 L65 0 L161 0 L161 280 L267 280 C357 280 459 338 459 459 L459 459 Z M360 457 C360 390 307 360 250 360 L161 360 L161 554 L250 554 C307 554 360 523 360 457 L360 457 Z " />
<glyph glyph-name="Q" unicode="Q" horiz-adv-x="756" d="M757 -42 C732 -52 711 -54 689 -54 C657 -54 618 -48 570 -25 C530 -6 500 6 471 10 L471 12 C605 35 716 156 716 320 C716 525 548 651 378 651 C208 651 40 525 40 320 C40 126 187 4 345 -10 C380 -26 439 -53 501 -86 C558 -116 604 -130 669 -130 C678 -130 688 -129 696 -127 L757 -42 Z M618 318 C618 160 494 70 378 70 C260 70 138 160 138 318 C138 476 260 565 378 565 C494 565 618 476 618 318 L618 318 Z " />
<glyph glyph-name="R" unicode="R" horiz-adv-x="522" d="M555 0 L337 295 C399 320 449 374 449 459 C449 580 347 638 257 638 L65 638 L65 0 L161 0 L161 280 L234 280 L435 0 L555 0 Z M350 457 C350 390 297 360 240 360 L161 360 L161 554 L240 554 C297 554 350 523 350 457 L350 457 Z " />
<glyph glyph-name="S" unicode="S" horiz-adv-x="476" d="M436 183 C436 296 362 347 253 384 C187 406 153 434 153 480 C153 525 192 564 255 564 C306 564 354 543 377 527 L396 608 C373 625 321 644 259 644 C125 644 60 561 60 473 C60 381 119 324 231 288 C306 264 339 232 339 174 C339 117 293 79 224 79 C157 79 92 103 46 138 L57 37 C90 15 151 -5 219 -5 C361 -5 436 71 436 183 L436 183 Z " />
<glyph glyph-name="T" unicode="T" horiz-adv-x="517" d="M512 555 L512 638 L5 638 L5 555 L210 555 L210 0 L307 0 L307 555 L512 555 Z " />
<glyph glyph-name="U" unicode="U" horiz-adv-x="650" d="M585 225 L585 638 L491 638 L491 235 C491 140 437 74 326 74 C215 74 162 140 162 235 L162 638 L65 638 L65 225 C65 76 176 -12 325 -12 C474 -12 585 76 585 225 L585 225 Z " />
<glyph glyph-name="V" unicode="V" horiz-adv-x="578" d="M558 638 L466 638 L348 334 C330 288 312 235 295 182 L293 182 C276 236 257 290 240 334 L122 638 L20 638 L274 -9 L305 -9 L558 638 Z " />
<glyph glyph-name="W" unicode="W" horiz-adv-x="909" d="M889 638 L800 638 L697 344 C683 304 663 249 650 198 L648 198 C634 250 617 303 603 344 L500 638 L417 638 L315 344 C300 301 283 250 269 198 L267 198 C254 250 235 302 220 344 L117 638 L20 638 L246 -9 L279 -9 L398 332 C415 380 433 434 453 503 L455 503 C475 434 493 381 510 332 L629 -9 L662 -9 L889 638 Z " />
<glyph glyph-name="X" unicode="X" horiz-adv-x="604" d="M564 0 L361 329 L555 638 L452 638 L352 478 C337 454 319 424 306 399 L304 399 C291 424 272 455 258 478 L159 638 L49 638 L244 323 L40 0 L143 0 L249 168 C264 192 285 226 299 252 L301 252 C316 225 334 194 350 168 L454 0 L564 0 Z " />
<glyph glyph-name="Y" unicode="Y" horiz-adv-x="624" d="M604 638 L505 638 L377 458 C359 433 334 396 316 368 L314 368 C296 396 273 431 254 458 L126 638 L20 638 L264 294 L264 0 L359 0 L359 294 L604 638 Z " />
<glyph glyph-name="Z" unicode="Z" horiz-adv-x="532" d="M492 0 L492 83 L173 83 L172 84 C203 135 243 202 276 259 L481 615 L481 638 L56 638 L56 555 L347 555 L348 554 C317 505 276 435 243 378 L40 23 L40 0 L492 0 Z " />
<glyph glyph-name="bracketleft" unicode="&#x5b;" horiz-adv-x="282" d="M277 -218 L277 -142 L154 -142 L154 624 L277 624 L277 700 L65 700 L65 -218 L277 -218 Z " />
<glyph glyph-name="backslash" unicode="&#x5c;" horiz-adv-x="477" d="M507 -127 L97 675 L30 640 L440 -162 L507 -127 Z " />
<glyph glyph-name="bracketright" unicode="&#x5d;" horiz-adv-x="282" d="M217 -218 L217 700 L5 700 L5 624 L128 624 L128 -142 L5 -142 L5 -218 L217 -218 Z " />
<glyph glyph-name="asciicircum" unicode="&#x5e;" horiz-adv-x="500" d="M419 539 C376 571 317 627 281 677 C273 689 258 696 250 696 C242 696 227 689 219 677 C183 627 124 569 81 537 L138 512 C176 535 212 562 245 591 C278 562 319 535 357 512 L419 539 Z " />
<glyph glyph-name="underscore" unicode="&#x5f;" horiz-adv-x="500" d="M502 -231 L502 -153 L-1 -153 L-1 -231 L502 -231 Z " />
<glyph glyph-name="grave" unicode="&#x60;" horiz-adv-x="500" d="M306 539 C263 571 204 627 168 677 C160 689 145 696 137 696 C121 696 88 663 88 648 C88 641 95 630 104 621 C145 577 192 543 244 512 L306 539 Z " />
<glyph glyph-name="a" unicode="a" horiz-adv-x="442" d="M432 47 C403 52 381 76 381 117 L381 300 C381 407 308 464 207 464 C152 464 100 452 59 425 L77 350 C110 372 157 386 202 386 C266 386 290 353 290 312 L290 283 L184 273 C107 266 35 216 35 128 C35 55 91 -11 181 -11 C233 -11 281 7 302 60 C309 22 343 -4 374 -11 L432 47 Z M290 168 C290 107 243 66 189 66 C148 66 122 95 122 127 C122 160 145 195 203 200 L290 208 L290 168 Z " />
<glyph glyph-name="b" unicode="b" horiz-adv-x="538" d="M503 230 C503 366 407 464 276 464 C227 464 168 444 151 426 L151 712 L60 712 L60 46 C93 20 173 -11 254 -11 C407 -11 503 89 503 230 L503 230 Z M411 228 C411 131 349 67 244 67 C209 67 166 81 151 91 L151 337 C165 353 206 382 267 382 C348 382 411 318 411 228 L411 228 Z " />
<glyph glyph-name="c" unicode="c" horiz-adv-x="455" d="M420 426 C382 447 336 459 277 459 C155 459 35 372 35 226 C35 81 155 -6 277 -6 C321 -6 361 1 394 16 L403 100 C362 80 328 72 285 72 C204 72 127 130 127 224 C127 319 202 377 283 377 C326 377 362 369 403 343 L420 426 Z " />
<glyph glyph-name="d" unicode="d" horiz-adv-x="538" d="M478 0 L478 712 L387 712 L387 426 C370 444 314 464 265 464 C134 464 35 366 35 226 C35 69 154 -11 254 -11 C328 -11 371 21 391 50 L392 50 L392 0 L478 0 Z M387 125 C369 98 332 67 274 67 C193 67 127 130 127 225 C127 319 193 382 274 382 C335 382 373 353 387 337 L387 125 Z " />
<glyph glyph-name="e" unicode="e" horiz-adv-x="491" d="M456 292 C456 376 385 464 260 464 C155 464 35 380 35 226 C35 85 149 -11 278 -11 C339 -11 380 1 412 18 L422 106 C390 85 348 69 290 69 C184 69 132 148 129 204 L402 204 L453 255 C455 265 456 278 456 292 L456 292 Z M364 290 C364 286 364 282 363 278 L135 278 C147 341 208 386 265 386 C325 386 364 335 364 290 L364 290 Z " />
<glyph glyph-name="f" unicode="f" horiz-adv-x="335" d="M368 697 C344 707 313 712 278 712 C160 712 87 644 87 516 L87 453 L10 453 L10 380 L87 380 L87 0 L178 0 L178 380 L307 380 L325 453 L178 453 L178 511 C178 593 213 636 284 636 C304 636 329 630 350 621 L368 697 Z " />
<glyph glyph-name="g" unicode="g" horiz-adv-x="463" d="M443 -81 C443 2 395 46 316 74 L194 117 C184 121 181 129 181 133 C181 153 201 158 237 158 C343 158 406 230 406 311 C406 340 396 366 386 378 C403 378 430 384 442 392 L425 467 C410 458 380 450 359 450 C336 450 313 453 297 457 C281 461 261 464 237 464 C137 464 67 400 67 311 C67 252 100 209 141 186 C110 177 83 147 83 114 L134 63 C88 53 35 11 35 -68 C35 -162 117 -231 241 -231 C362 -231 443 -167 443 -81 L443 -81 Z M323 312 C323 269 283 234 237 234 C187 234 150 269 150 312 C150 353 187 390 237 390 C287 390 323 353 323 312 L323 312 Z M357 -79 C357 -114 318 -155 239 -155 C158 -155 118 -111 118 -67 C118 -18 155 20 210 20 L288 -3 C333 -16 357 -45 357 -79 L357 -79 Z " />
<glyph glyph-name="h" unicode="h" horiz-adv-x="511" d="M456 0 L456 300 C456 401 383 464 284 464 C213 464 174 440 152 406 L151 406 L151 712 L60 712 L60 0 L151 0 L151 291 C151 338 187 386 260 386 C336 386 365 338 365 291 L365 0 L456 0 Z " />
<glyph glyph-name="i" unicode="i" horiz-adv-x="220" d="M165 596 C165 615 129 651 110 651 C92 651 55 615 55 596 C55 578 92 541 110 541 C129 541 165 578 165 596 L165 596 Z M156 0 L156 453 L64 453 L64 0 L156 0 Z " />
<glyph glyph-name="j" unicode="j" horiz-adv-x="220" d="M165 596 C165 615 129 651 110 651 C92 651 55 615 55 596 C55 578 92 541 110 541 C129 541 165 578 165 596 L165 596 Z M156 -49 L156 453 L64 453 L64 -42 C64 -120 25 -161 -34 -174 L24 -231 C89 -216 156 -144 156 -49 L156 -49 Z " />
<glyph glyph-name="k" unicode="k" horiz-adv-x="459" d="M458 0 L254 229 L452 453 L344 453 L152 237 L151 237 L151 712 L60 712 L60 0 L151 0 L151 213 L152 213 L340 0 L458 0 Z " />
<glyph glyph-name="l" unicode="l" horiz-adv-x="232" d="M212 44 C184 49 151 77 151 119 L151 712 L60 712 L60 107 C60 20 120 -10 150 -18 L212 44 Z " />
<glyph glyph-name="m" unicode="m" horiz-adv-x="783" d="M728 0 L728 300 C728 401 659 464 554 464 C487 464 432 433 407 397 C383 439 330 464 273 464 C198 464 159 434 140 394 L139 394 L139 453 L55 453 L55 0 L146 0 L146 291 C146 338 169 386 248 386 C330 386 346 338 346 291 L346 0 L437 0 L437 291 C437 338 460 386 539 386 C621 386 637 338 637 291 L637 0 L728 0 Z " />
<glyph glyph-name="n" unicode="n" horiz-adv-x="506" d="M451 0 L451 300 C451 401 378 464 279 464 C200 464 159 434 139 394 L138 394 L138 453 L55 453 L55 0 L146 0 L146 291 C146 338 182 386 255 386 C331 386 360 338 360 291 L360 0 L451 0 Z " />
<glyph glyph-name="o" unicode="o" horiz-adv-x="551" d="M516 226 C516 367 411 464 276 464 C141 464 35 367 35 226 C35 86 141 -11 276 -11 C411 -11 516 86 516 226 L516 226 Z M424 224 C424 130 355 67 276 67 C196 67 127 130 127 224 C127 319 196 382 276 382 C355 382 424 319 424 224 L424 224 Z " />
<glyph glyph-name="p" unicode="p" horiz-adv-x="533" d="M498 227 C498 384 379 464 279 464 C205 464 162 432 142 403 L141 403 L141 453 L55 453 L55 -231 L146 -231 L146 27 C163 9 219 -11 268 -11 C399 -11 498 87 498 227 L498 227 Z M406 224 C406 130 340 67 259 67 C198 67 160 96 146 112 L146 324 C164 351 201 382 259 382 C340 382 406 319 406 224 L406 224 Z " />
<glyph glyph-name="q" unicode="q" horiz-adv-x="533" d="M478 -231 L478 462 L456 462 L411 429 C390 441 346 464 278 464 C133 464 35 364 35 223 C35 87 137 -11 268 -11 C317 -11 370 9 387 27 L387 -231 L478 -231 Z M387 112 C373 96 338 67 277 67 C196 67 127 131 127 221 C127 318 193 382 288 382 C323 382 372 362 387 347 L387 112 Z " />
<glyph glyph-name="r" unicode="r" horiz-adv-x="332" d="M322 452 C312 456 291 459 278 459 C215 459 164 426 147 361 L146 361 L146 453 L55 453 L55 0 L146 0 L146 229 C146 334 208 362 267 362 C280 362 292 360 300 358 L322 452 Z " />
<glyph glyph-name="s" unicode="s" horiz-adv-x="373" d="M338 126 C338 204 287 245 198 277 C154 293 134 306 134 334 C134 363 158 383 195 383 C243 383 274 368 295 354 L313 430 C296 441 247 459 196 459 C107 459 46 406 46 331 C46 259 96 218 184 186 C225 171 247 154 247 123 C247 94 219 71 177 71 C123 71 71 95 38 122 L49 27 C80 7 123 -6 175 -6 C283 -6 338 54 338 126 L338 126 Z " />
<glyph glyph-name="t" unicode="t" horiz-adv-x="359" d="M349 453 L189 453 L189 592 L99 545 L99 453 L10 453 L10 380 L99 380 L99 130 C99 42 165 -5 247 -5 C265 -5 285 -3 297 3 L305 75 C294 71 280 69 264 69 C216 69 189 87 189 139 L189 380 L333 380 L349 453 Z " />
<glyph glyph-name="u" unicode="u" horiz-adv-x="506" d="M451 0 L451 453 L360 453 L360 162 C360 115 324 67 251 67 C175 67 146 115 146 162 L146 453 L55 453 L55 153 C55 52 128 -11 227 -11 C306 -11 347 19 367 59 L368 59 L368 0 L451 0 Z " />
<glyph glyph-name="v" unicode="v" horiz-adv-x="456" d="M436 453 L351 453 L269 251 C257 222 244 182 233 148 L231 148 C220 182 207 222 195 251 L112 453 L20 453 L209 -8 L246 -8 L436 453 Z " />
<glyph glyph-name="w" unicode="w" horiz-adv-x="689" d="M669 453 L587 453 L515 259 C504 230 494 194 484 160 L482 160 C472 194 464 228 452 259 L379 453 L313 453 L241 259 C230 229 218 190 210 160 L208 160 C200 191 189 229 178 259 L106 453 L20 453 L191 -8 L224 -8 L307 214 C319 245 332 288 343 328 L345 328 C357 288 369 246 382 212 L465 -8 L498 -8 L669 453 Z " />
<glyph glyph-name="x" unicode="x" horiz-adv-x="451" d="M416 0 L276 233 L409 453 L311 453 L253 354 C243 337 234 321 225 305 L223 305 C214 322 205 338 196 354 L138 453 L41 453 L175 229 L35 0 L133 0 L195 104 C203 118 216 139 225 157 L227 157 C236 139 247 119 256 104 L318 0 L416 0 Z " />
<glyph glyph-name="y" unicode="y" horiz-adv-x="469" d="M449 453 L362 453 L278 247 C267 220 250 178 237 144 L235 144 C224 180 208 220 197 248 L114 453 L20 453 L189 40 C136 -90 73 -143 -7 -178 L51 -236 C140 -196 214 -123 282 44 L449 453 Z " />
<glyph glyph-name="z" unicode="z" horiz-adv-x="432" d="M397 0 L397 73 L164 73 L163 74 C189 117 213 157 236 195 L379 435 L379 453 L49 453 L49 380 L249 380 L250 379 C228 345 199 295 177 258 L35 18 L35 0 L397 0 Z " />
<glyph glyph-name="braceleft" unicode="&#x7b;" horiz-adv-x="308" d="M303 -149 C221 -149 185 -85 185 31 C185 120 163 188 108 240 C163 294 185 360 185 449 C185 565 221 629 303 629 L287 699 C151 699 96 590 96 453 C96 359 73 283 5 240 C73 198 96 122 96 28 C96 -110 151 -219 287 -219 L303 -149 Z " />
<glyph glyph-name="bar" unicode="&#x7c;" horiz-adv-x="208" d="M143 -231 L143 712 L65 712 L65 -231 L143 -231 Z " />
<glyph glyph-name="braceright" unicode="&#x7d;" horiz-adv-x="308" d="M303 240 C235 283 212 359 212 453 C212 590 157 699 21 699 L5 629 C87 629 123 565 123 449 C123 360 145 294 200 240 C145 188 123 120 123 31 C123 -85 87 -149 5 -149 L21 -219 C157 -219 212 -110 212 28 C212 122 235 198 303 240 L303 240 Z " />
<glyph glyph-name="asciitilde" unicode="&#x7e;" horiz-adv-x="377" d="M337 320 L283 344 C272 329 246 292 228 292 C212 292 168 329 141 329 C115 329 64 266 40 224 L94 200 C105 215 131 251 149 251 C166 251 209 215 236 215 C262 215 313 278 337 320 L337 320 Z " />
<glyph glyph-name="nbspace" unicode="&#xa0;" horiz-adv-x="115" d="" />
<glyph glyph-name="sterling" unicode="&#xa3;" horiz-adv-x="430" d="M390 68 C342 83 284 89 239 89 C203 89 163 84 141 77 C162 105 178 166 178 244 L178 294 L289 294 L301 348 L178 348 L178 445 C178 527 213 570 284 570 C304 570 329 564 350 555 L368 631 C344 641 313 646 278 646 C160 646 87 578 87 450 L87 348 L10 348 L10 294 L87 294 L87 252 C87 156 68 90 38 41 L83 -11 C120 4 170 14 228 14 C286 14 336 4 373 -11 L390 68 Z " />
<glyph glyph-name="currency" unicode="&#xa4;" horiz-adv-x="489" d="M349 291 L177 291 C177 300 176 309 176 318 C176 329 176 340 177 351 L348 351 L358 405 L184 405 C206 518 270 566 339 566 C377 566 409 557 433 541 L449 620 C423 634 390 647 332 647 C222 647 118 567 91 405 L10 405 L10 351 L85 351 C84 341 84 330 84 319 C84 309 85 300 85 291 L10 291 L10 237 L90 237 C116 70 220 -9 332 -9 C368 -9 407 -3 428 10 L437 93 C411 79 381 71 340 71 C274 71 205 119 183 237 L339 237 L349 291 Z " />
<glyph glyph-name="section" unicode="&#xa7;" horiz-adv-x="485" d="M420 -55 C420 -23 410 14 389 45 L419 174 L176 428 C163 442 155 469 155 481 C155 529 191 568 258 568 C308 568 346 556 383 532 L401 615 C365 635 324 649 256 649 C135 649 65 569 65 483 C65 451 75 414 96 383 L66 254 L309 0 C322 -14 330 -41 330 -53 C330 -101 294 -140 227 -140 C177 -140 139 -128 102 -104 L84 -187 C120 -207 161 -221 229 -221 C350 -221 420 -141 420 -55 L420 -55 Z M359 135 L343 67 L126 293 L142 361 L359 135 Z " />
<glyph glyph-name="copyright" unicode="&#xa9;" horiz-adv-x="610" d="M570 250 C570 405 454 513 305 513 C157 513 40 405 40 250 C40 96 157 -13 305 -13 C454 -13 570 96 570 250 L570 250 Z M514 250 C514 130 428 38 305 38 C181 38 96 130 96 250 C96 370 181 462 305 462 C428 462 514 370 514 250 L514 250 Z M402 371 C383 385 352 394 317 394 C244 394 171 342 171 253 C171 165 244 113 317 113 C340 113 363 118 383 129 L390 194 C364 180 342 176 321 176 C280 176 242 205 242 252 C242 300 279 329 320 329 C343 329 372 320 388 307 L402 371 Z " />
<glyph glyph-name="guillemotleft" unicode="&#xab;" horiz-adv-x="409" d="M371 105 C354 148 336 188 313 226 C336 264 354 304 371 347 L358 377 C329 339 280 287 235 254 C225 246 218 233 218 226 C218 219 225 206 235 198 C280 165 329 113 358 75 L371 105 Z M173 105 C156 148 138 188 115 226 C138 264 156 304 173 347 L160 377 C131 339 82 287 37 254 C27 246 20 233 20 226 C20 219 27 206 37 198 C82 165 131 113 160 75 L173 105 Z " />
<glyph glyph-name="logicalnot" unicode="&#xac;" horiz-adv-x="500" d="M440 135 L440 316 L40 316 L40 238 L360 238 L360 135 L440 135 Z " />
<glyph glyph-name="registered" unicode="&#xae;" horiz-adv-x="480" d="M445 448 C445 567 354 651 240 651 C124 651 35 567 35 448 C35 329 124 245 240 245 C354 245 445 329 445 448 L445 448 Z M399 448 C399 352 330 286 240 286 C148 286 79 352 79 448 C79 544 148 610 240 610 C330 610 399 544 399 448 L399 448 Z M346 349 L287 434 C308 446 323 468 323 497 C323 544 282 573 241 573 L163 573 L163 323 L211 323 L211 421 L241 421 L306 322 L346 349 Z M275 497 C275 476 260 463 234 463 L211 463 L211 531 L234 531 C260 531 275 518 275 497 L275 497 Z " />
<glyph glyph-name="degree" unicode="&#xb0;" horiz-adv-x="304" d="M266 538 C266 600 214 651 152 651 C90 651 38 600 38 538 C38 476 90 425 152 425 C214 425 266 476 266 538 L266 538 Z M201 538 C201 507 181 485 152 485 C123 485 102 507 102 538 C102 569 123 591 152 591 C181 591 201 569 201 538 L201 538 Z " />
<glyph glyph-name="paragraph" unicode="&#xb6;" horiz-adv-x="413" d="M408 569 L408 643 L238 643 C132 643 35 581 35 460 C35 340 132 279 237 279 L246 279 L246 -42 C246 -120 207 -161 148 -174 L206 -231 C271 -216 338 -144 338 -49 L338 569 L408 569 Z " />
<glyph glyph-name="periodcentered" unicode="&#xb7;" horiz-adv-x="198" d="M160 271 C160 290 119 331 99 331 C79 331 38 290 38 271 C38 251 79 210 99 210 C119 210 160 251 160 271 L160 271 Z " />
<glyph glyph-name="guillemotright" unicode="&#xbb;" horiz-adv-x="409" d="M389 226 C389 233 382 246 372 254 C327 287 277 339 249 377 L236 347 C252 304 270 264 294 226 C270 188 252 148 236 105 L249 75 C277 113 327 165 372 198 C382 206 389 219 389 226 L389 226 Z M191 226 C191 233 184 246 174 254 C129 287 79 339 51 377 L38 347 C54 304 72 264 96 226 C72 188 54 148 38 105 L51 75 C79 113 129 165 174 198 C184 206 191 219 191 226 L191 226 Z " />
<glyph glyph-name="divide" unicode="&#xf7;" horiz-adv-x="454" d="M280 403 C280 420 245 455 227 455 C209 455 174 420 174 403 C174 385 209 350 227 350 C245 350 280 385 280 403 L280 403 Z M414 238 L414 316 L40 316 L40 238 L414 238 Z M280 152 C280 169 245 204 227 204 C209 204 174 169 174 152 C174 134 209 99 227 99 C245 99 280 134 280 152 L280 152 Z " />
<glyph glyph-name="florin" unicode="&#x192;" horiz-adv-x="432" d="M442 647 C427 650 410 651 391 651 C273 651 188 583 165 455 L138 302 L51 302 L51 248 L129 248 L78 -42 C65 -118 6 -160 -54 -174 L4 -231 C72 -216 150 -146 167 -49 L220 248 L331 248 L343 302 L229 302 L255 450 C269 532 313 575 384 575 C397 575 412 574 425 571 L442 647 Z " />
<glyph glyph-name="afii10023" unicode="&#x401;" horiz-adv-x="449" d="M444 0 L444 83 L162 83 L162 279 L369 279 L369 362 L162 362 L162 555 L409 555 L409 638 L65 638 L65 0 L444 0 Z M375 766 C375 784 341 819 323 819 C305 819 271 784 271 766 C271 750 305 714 323 714 C341 714 375 750 375 766 L375 766 Z M222 766 C222 784 188 819 170 819 C154 819 118 784 118 766 C118 750 154 714 170 714 C188 714 222 750 222 766 L222 766 Z " />
<glyph glyph-name="afii10051" unicode="&#x402;" horiz-adv-x="619" d="M418 738 C375 770 316 826 280 876 C272 888 257 895 249 895 C233 895 200 862 200 847 C200 840 207 829 216 820 C257 776 304 742 356 711 L418 738 Z M599 0 L327 647 L292 647 L20 0 L115 0 L184 165 L432 165 L501 0 L599 0 Z M399 242 L217 242 L280 398 C289 419 300 449 307 476 L309 476 C317 449 327 419 336 398 L399 242 Z " />
<glyph glyph-name="afii10052" unicode="&#x403;" horiz-adv-x="449" d="M333 738 C290 770 231 826 195 876 C187 888 172 895 164 895 C148 895 115 862 115 847 C115 840 122 829 131 820 C172 776 219 742 271 711 L333 738 Z M444 0 L444 83 L162 83 L162 279 L369 279 L369 362 L162 362 L162 555 L409 555 L409 638 L65 638 L65 0 L444 0 Z " />
<glyph glyph-name="afii10053" unicode="&#x404;" horiz-adv-x="653" d="M435 738 C392 770 333 826 297 876 C289 888 274 895 266 895 C250 895 217 862 217 847 C217 840 224 829 233 820 C274 776 321 742 373 711 L435 738 Z M588 638 L588 0 L491 0 L491 312 C491 360 491 416 493 467 L491 468 C457 418 406 353 373 310 L132 0 L65 0 L65 638 L162 638 L162 326 C162 278 162 222 160 171 L162 170 C196 220 247 285 280 328 L521 638 L588 638 Z " />
<glyph glyph-name="afii10055" unicode="&#x406;" horiz-adv-x="247" d="M172 0 L172 638 L75 638 L75 0 L172 0 Z " />
<glyph glyph-name="afii10056" unicode="&#x407;" horiz-adv-x="756" d="M487 738 C444 770 385 826 349 876 C341 888 326 895 318 895 C302 895 269 862 269 847 C269 840 276 829 285 820 C326 776 373 742 425 711 L487 738 Z M716 320 C716 525 548 651 378 651 C208 651 40 525 40 320 C40 113 208 -12 378 -12 C548 -12 716 113 716 320 L716 320 Z M618 318 C618 160 494 70 378 70 C260 70 138 160 138 318 C138 476 260 565 378 565 C494 565 618 476 618 318 L618 318 Z " />
<glyph glyph-name="afii10058" unicode="&#x409;" horiz-adv-x="582" d="M400 738 C357 770 298 826 262 876 C254 888 239 895 231 895 C215 895 182 862 182 847 C182 840 189 829 198 820 C239 776 286 742 338 711 L400 738 Z M244 197 C193 113 148 77 79 46 L143 -18 C255 36 297 101 379 262 L571 638 L476 638 L354 408 C337 376 313 329 295 293 L293 293 C276 329 255 373 236 408 L114 638 L11 638 L244 197 Z " />
<glyph glyph-name="afii10059" unicode="&#x40a;" horiz-adv-x="572" d="M395 738 C352 770 293 826 257 876 C249 888 234 895 226 895 C210 895 177 862 177 847 C177 840 184 829 193 820 C234 776 281 742 333 711 L395 738 Z M-10 638 L-10 555 L110 555 L110 0 L305 0 C421 0 530 60 530 194 C530 325 421 388 305 388 L206 388 L206 638 L-10 638 Z M433 194 C433 115 369 80 301 80 L206 80 L206 308 L301 308 C369 308 433 271 433 194 L433 194 Z " />
<glyph glyph-name="afii10060" unicode="&#x40b;" horiz-adv-x="604" d="M411 738 C368 770 309 826 273 876 C265 888 250 895 242 895 C226 895 193 862 193 847 C193 840 200 829 209 820 C250 776 297 742 349 711 L411 738 Z M138 367 L461 367 C438 495 323 558 215 558 C150 558 88 537 57 517 L40 603 C79 625 140 644 226 644 C382 644 564 536 564 319 C564 105 384 -5 226 -5 C146 -5 101 4 61 25 L52 113 C91 91 141 77 215 77 C331 77 448 145 464 284 L138 284 L138 367 Z " />
<glyph glyph-name="afii10061" unicode="&#x40c;" horiz-adv-x="737" d="M477 738 C434 770 375 826 339 876 C331 888 316 895 308 895 C292 895 259 862 259 847 C259 840 266 829 275 820 C316 776 363 742 415 711 L477 738 Z M161 638 L65 638 L65 0 L260 0 C376 0 485 60 485 194 C485 325 376 388 260 388 L161 388 L161 638 Z M388 194 C388 115 324 80 256 80 L161 80 L161 308 L256 308 C324 308 388 271 388 194 L388 194 Z M672 0 L672 638 L575 638 L575 0 L672 0 Z " />
<glyph glyph-name="afii10062" unicode="&#x40e;" horiz-adv-x="966" d="M592 738 C549 770 490 826 454 876 C446 888 431 895 423 895 C407 895 374 862 374 847 C374 840 381 829 390 820 C431 776 478 742 530 711 L592 738 Z M926 320 C926 525 758 651 588 651 C430 651 273 542 252 362 L162 362 L162 638 L65 638 L65 0 L162 0 L162 279 L252 279 C273 96 429 -12 588 -12 C758 -12 926 113 926 320 L926 320 Z M828 318 C828 160 704 70 588 70 C470 70 348 160 348 318 C348 476 470 565 588 565 C704 565 828 476 828 318 L828 318 Z " />
<glyph glyph-name="afii10145" unicode="&#x40f;" horiz-adv-x="522" d="M370 738 C327 770 268 826 232 876 C224 888 209 895 201 895 C185 895 152 862 152 847 C152 840 159 829 168 820 C209 776 256 742 308 711 L370 738 Z M-33 0 L185 295 C123 320 73 374 73 459 C73 580 175 638 265 638 L457 638 L457 0 L361 0 L361 280 L288 280 L87 0 L-33 0 Z M172 457 C172 390 225 360 282 360 L361 360 L361 554 L282 554 C225 554 172 523 172 457 L172 457 Z " />
<glyph glyph-name="afii10017" unicode="&#x410;" horiz-adv-x="619" d="M599 0 L327 647 L292 647 L20 0 L115 0 L184 165 L432 165 L501 0 L599 0 Z M399 242 L217 242 L280 398 C289 419 300 449 307 476 L309 476 C317 449 327 419 336 398 L399 242 Z " />
<glyph glyph-name="afii10018" unicode="&#x411;" horiz-adv-x="530" d="M427 555 L427 638 L65 638 L65 0 L260 0 C376 0 485 60 485 194 C485 325 376 388 260 388 L161 388 L161 555 L427 555 Z M388 194 C388 115 324 80 256 80 L161 80 L161 308 L256 308 C324 308 388 271 388 194 L388 194 Z " />
<glyph glyph-name="afii10019" unicode="&#x412;" horiz-adv-x="521" d="M481 194 C481 276 422 342 363 359 C400 375 422 424 422 471 C422 583 328 638 243 638 L65 638 L65 0 L272 0 C371 0 481 62 481 194 L481 194 Z M326 471 C326 411 280 386 227 386 L157 386 L157 558 L227 558 C280 558 326 532 326 471 L326 471 Z M384 194 C384 115 320 80 252 80 L157 80 L157 308 L252 308 C320 308 384 271 384 194 L384 194 Z " />
<glyph glyph-name="afii10020" unicode="&#x413;" horiz-adv-x="423" d="M418 555 L418 638 L65 638 L65 0 L162 0 L162 555 L418 555 Z " />
<glyph glyph-name="afii10021" unicode="&#x414;" horiz-adv-x="664" d="M122 0 L545 0 L559 -175 L642 -175 L642 83 L577 83 L577 638 L156 638 L132 362 C118 194 104 144 85 83 L25 83 L25 -175 L108 -175 L122 0 Z M176 83 C195 144 209 194 223 362 L240 555 L480 555 L480 83 L176 83 Z " />
<glyph glyph-name="afii10022" unicode="&#x415;" horiz-adv-x="449" d="M444 0 L444 83 L162 83 L162 279 L369 279 L369 362 L162 362 L162 555 L409 555 L409 638 L65 638 L65 0 L444 0 Z " />
<glyph glyph-name="afii10024" unicode="&#x416;" horiz-adv-x="871" d="M484 638 L387 638 L387 345 L386 345 L152 638 L43 638 L288 335 L17 0 L142 0 L386 307 L387 307 L387 0 L484 0 L484 307 L485 307 L729 0 L854 0 L583 335 L828 638 L719 638 L485 345 L484 345 L484 638 Z " />
<glyph glyph-name="afii10025" unicode="&#x417;" horiz-adv-x="448" d="M115 298 L187 298 C255 298 319 262 319 186 C319 110 253 72 187 72 C113 72 63 86 24 109 L33 19 C73 -2 118 -11 198 -11 C300 -11 416 56 416 186 C416 267 357 332 298 350 C361 367 400 421 400 471 C400 593 293 650 202 650 C116 650 55 631 16 609 L33 521 C64 541 126 567 191 567 C246 567 304 534 304 471 C304 405 254 377 196 377 L115 377 L115 298 Z " />
<glyph glyph-name="afii10026" unicode="&#x418;" horiz-adv-x="653" d="M521 638 L280 328 C247 285 196 220 162 170 L160 171 C162 222 162 278 162 326 L162 638 L65 638 L65 0 L132 0 L373 310 C406 353 457 418 491 468 L493 467 C491 416 491 360 491 312 L491 0 L588 0 L588 638 L521 638 Z " />
<glyph glyph-name="afii10027" unicode="&#x419;" horiz-adv-x="653" d="M588 638 L588 0 L491 0 L491 312 C491 360 491 416 493 467 L491 468 C457 418 406 353 373 310 L132 0 L65 0 L65 638 L162 638 L162 326 C162 278 162 222 160 171 L162 170 C196 220 247 285 280 328 L521 638 L588 638 Z M326 787 C256 787 190 808 157 827 L140 749 C179 729 240 712 326 712 C412 712 473 729 512 749 L495 827 C462 808 396 787 326 787 L326 787 Z " />
<glyph glyph-name="afii10028" unicode="&#x41a;" horiz-adv-x="544" d="M532 0 L261 327 L523 638 L414 638 L163 337 L162 337 L162 638 L65 638 L65 0 L162 0 L162 299 L163 299 L407 0 L532 0 Z " />
<glyph glyph-name="afii10029" unicode="&#x41b;" horiz-adv-x="578" d="M20 0 L112 0 L230 304 C248 350 266 403 283 456 L285 456 C302 402 321 348 338 304 L456 0 L558 0 L304 647 L273 647 L20 0 Z " />
<glyph glyph-name="afii10030" unicode="&#x41c;" horiz-adv-x="820" d="M775 0 L718 638 L658 638 L490 310 C463 257 432 195 412 146 L410 146 C389 195 355 262 330 310 L160 638 L100 638 L45 0 L131 0 L156 288 C159 326 164 382 166 431 L168 431 C190 384 217 327 239 285 L389 -5 L425 -5 L573 285 C594 326 625 388 645 433 L647 433 C649 386 653 331 657 288 L683 0 L775 0 Z " />
<glyph glyph-name="afii10031" unicode="&#x41d;" horiz-adv-x="653" d="M588 0 L588 638 L491 638 L491 362 L162 362 L162 638 L65 638 L65 0 L162 0 L162 279 L491 279 L491 0 L588 0 Z " />
<glyph glyph-name="afii10032" unicode="&#x41e;" horiz-adv-x="756" d="M716 320 C716 525 548 651 378 651 C208 651 40 525 40 320 C40 113 208 -12 378 -12 C548 -12 716 113 716 320 L716 320 Z M618 318 C618 160 494 70 378 70 C260 70 138 160 138 318 C138 476 260 565 378 565 C494 565 618 476 618 318 L618 318 Z " />
<glyph glyph-name="afii10033" unicode="&#x41f;" horiz-adv-x="653" d="M588 0 L588 638 L65 638 L65 0 L162 0 L162 555 L491 555 L491 0 L588 0 Z " />
<glyph glyph-name="afii10034" unicode="&#x420;" horiz-adv-x="494" d="M459 459 C459 580 357 638 267 638 L65 638 L65 0 L161 0 L161 280 L267 280 C357 280 459 338 459 459 L459 459 Z M360 457 C360 390 307 360 250 360 L161 360 L161 554 L250 554 C307 554 360 523 360 457 L360 457 Z " />
<glyph glyph-name="afii10035" unicode="&#x421;" horiz-adv-x="604" d="M564 603 C525 625 464 644 378 644 C222 644 40 536 40 319 C40 105 220 -5 378 -5 C458 -5 503 4 543 25 L552 113 C513 91 463 77 389 77 C264 77 138 156 138 317 C138 479 267 558 389 558 C454 558 516 537 547 517 L564 603 Z " />
<glyph glyph-name="afii10036" unicode="&#x422;" horiz-adv-x="517" d="M512 555 L512 638 L5 638 L5 555 L210 555 L210 0 L307 0 L307 555 L512 555 Z " />
<glyph glyph-name="afii10037" unicode="&#x423;" horiz-adv-x="582" d="M244 197 C193 113 148 77 79 46 L143 -18 C255 36 297 101 379 262 L571 638 L476 638 L354 408 C337 376 313 329 295 293 L293 293 C276 329 255 373 236 408 L114 638 L11 638 L244 197 Z " />
<glyph glyph-name="afii10038" unicode="&#x424;" horiz-adv-x="853" d="M378 70 C260 70 138 161 138 320 C138 479 260 569 378 569 L378 70 Z M475 569 C591 569 715 479 715 320 C715 161 591 70 475 70 L475 569 Z M475 -12 C645 -12 812 113 812 320 C812 525 645 651 475 651 L475 753 L378 753 L378 651 C208 651 41 525 41 320 C41 113 208 -12 378 -12 L378 -115 L475 -115 L475 -12 Z " />
<glyph glyph-name="afii10039" unicode="&#x425;" horiz-adv-x="604" d="M564 0 L361 329 L555 638 L452 638 L352 478 C337 454 319 424 306 399 L304 399 C291 424 272 455 258 478 L159 638 L49 638 L244 323 L40 0 L143 0 L249 168 C264 192 285 226 299 252 L301 252 C316 225 334 194 350 168 L454 0 L564 0 Z " />
<glyph glyph-name="afii10040" unicode="&#x426;" horiz-adv-x="657" d="M588 638 L491 638 L491 83 L162 83 L162 638 L65 638 L65 0 L556 0 L570 -175 L653 -175 L653 83 L588 83 L588 638 Z " />
<glyph glyph-name="afii10041" unicode="&#x427;" horiz-adv-x="637" d="M572 638 L475 638 L475 457 C475 384 423 308 316 308 C204 308 162 384 162 457 L162 638 L65 638 L65 448 C65 312 163 226 297 226 C392 226 444 259 474 305 L475 305 L475 0 L572 0 L572 638 Z " />
<glyph glyph-name="afii10042" unicode="&#x428;" horiz-adv-x="901" d="M836 0 L836 638 L739 638 L739 83 L499 83 L499 638 L402 638 L402 83 L162 83 L162 638 L65 638 L65 0 L836 0 Z " />
<glyph glyph-name="afii10043" unicode="&#x429;" horiz-adv-x="909" d="M836 638 L739 638 L739 83 L499 83 L499 638 L402 638 L402 83 L162 83 L162 638 L65 638 L65 0 L804 0 L818 -175 L901 -175 L901 83 L836 83 L836 638 Z " />
<glyph glyph-name="afii10044" unicode="&#x42a;" horiz-adv-x="572" d="M-10 638 L-10 555 L110 555 L110 0 L305 0 C421 0 530 60 530 194 C530 325 421 388 305 388 L206 388 L206 638 L-10 638 Z M433 194 C433 115 369 80 301 80 L206 80 L206 308 L301 308 C369 308 433 271 433 194 L433 194 Z " />
<glyph glyph-name="afii10045" unicode="&#x42b;" horiz-adv-x="737" d="M161 638 L65 638 L65 0 L260 0 C376 0 485 60 485 194 C485 325 376 388 260 388 L161 388 L161 638 Z M388 194 C388 115 324 80 256 80 L161 80 L161 308 L256 308 C324 308 388 271 388 194 L388 194 Z M672 0 L672 638 L575 638 L575 0 L672 0 Z " />
<glyph glyph-name="afii10046" unicode="&#x42c;" horiz-adv-x="527" d="M161 638 L65 638 L65 0 L260 0 C376 0 485 60 485 194 C485 325 376 388 260 388 L161 388 L161 638 Z M388 194 C388 115 324 80 256 80 L161 80 L161 308 L256 308 C324 308 388 271 388 194 L388 194 Z " />
<glyph glyph-name="afii10047" unicode="&#x42d;" horiz-adv-x="604" d="M138 284 L464 284 C448 145 331 77 215 77 C141 77 91 91 52 113 L61 25 C101 4 146 -5 226 -5 C384 -5 564 105 564 319 C564 536 382 644 226 644 C140 644 79 625 40 603 L57 517 C88 537 150 558 215 558 C323 558 438 495 461 367 L138 367 L138 284 Z " />
<glyph glyph-name="afii10048" unicode="&#x42e;" horiz-adv-x="966" d="M926 320 C926 525 758 651 588 651 C430 651 273 542 252 362 L162 362 L162 638 L65 638 L65 0 L162 0 L162 279 L252 279 C273 96 429 -12 588 -12 C758 -12 926 113 926 320 L926 320 Z M828 318 C828 160 704 70 588 70 C470 70 348 160 348 318 C348 476 470 565 588 565 C704 565 828 476 828 318 L828 318 Z " />
<glyph glyph-name="afii10049" unicode="&#x42f;" horiz-adv-x="522" d="M87 0 L288 280 L361 280 L361 0 L457 0 L457 638 L265 638 C175 638 73 580 73 459 C73 374 123 320 185 295 L-33 0 L87 0 Z M172 457 C172 523 225 554 282 554 L361 554 L361 360 L282 360 C225 360 172 390 172 457 L172 457 Z " />
<glyph glyph-name="afii10065" unicode="&#x430;" horiz-adv-x="442" d="M432 47 C403 52 381 76 381 117 L381 300 C381 407 308 464 207 464 C152 464 100 452 59 425 L77 350 C110 372 157 386 202 386 C266 386 290 353 290 312 L290 283 L184 273 C107 266 35 216 35 128 C35 55 91 -11 181 -11 C233 -11 281 7 302 60 C309 22 343 -4 374 -11 L432 47 Z M290 168 C290 107 243 66 189 66 C148 66 122 95 122 127 C122 160 145 195 203 200 L290 208 L290 168 Z " />
<glyph glyph-name="afii10066" unicode="&#x431;" horiz-adv-x="538" d="M60 46 C93 20 173 -11 254 -11 C407 -11 503 89 503 230 C503 366 407 464 276 464 C227 464 168 444 151 426 L151 475 C151 572 213 636 318 636 L382 636 C417 636 448 641 472 651 L454 727 C433 718 408 712 388 712 L309 712 C156 712 60 612 60 471 L60 46 Z M411 228 C411 131 349 67 244 67 C209 67 166 81 151 91 L151 337 C165 353 206 382 267 382 C348 382 411 318 411 228 L411 228 Z " />
<glyph glyph-name="afii10067" unicode="&#x432;" horiz-adv-x="538" d="M478 521 C478 634 387 712 269 712 C152 712 60 634 60 521 L60 45 C93 19 173 -11 254 -11 C407 -11 503 87 503 224 C503 303 468 369 413 410 C456 435 478 475 478 521 L478 521 Z M411 222 C411 129 349 67 244 67 C209 67 166 81 151 90 L151 328 C165 343 206 371 267 371 C348 371 411 309 411 222 L411 222 Z M276 453 C227 453 168 433 151 416 L151 522 C151 589 206 636 269 636 C332 636 387 589 387 522 C387 488 373 461 350 441 C327 449 302 453 276 453 L276 453 Z " />
<glyph glyph-name="afii10068" unicode="&#x433;" horiz-adv-x="373" d="M62 354 C104 380 143 388 188 388 C224 388 248 368 248 339 C248 298 218 276 170 260 C86 231 38 188 38 121 C38 49 93 -11 201 -11 C253 -11 296 2 327 22 L338 117 C305 90 253 66 199 66 C157 66 129 89 129 118 C129 159 159 184 207 200 C291 229 339 269 339 336 C339 411 278 464 189 464 C130 464 84 452 46 431 L62 354 Z " />
<glyph glyph-name="afii10069" unicode="&#x434;" horiz-adv-x="538" d="M127 225 C127 322 189 386 294 386 C329 386 372 372 387 362 L387 116 C373 100 332 71 271 71 C190 71 127 135 127 225 L127 225 Z M478 407 C445 433 365 464 284 464 C131 464 35 364 35 223 C35 87 131 -11 262 -11 C311 -11 370 9 387 27 L387 -21 C387 -77 327 -156 210 -156 C146 -156 100 -140 65 -119 L75 -207 C109 -224 153 -236 218 -236 C356 -236 478 -140 478 1 L478 407 Z " />
<glyph glyph-name="afii10070" unicode="&#x435;" horiz-adv-x="491" d="M456 292 C456 376 385 464 260 464 C155 464 35 380 35 226 C35 85 149 -11 278 -11 C339 -11 380 1 412 18 L422 106 C390 85 348 69 290 69 C184 69 132 148 129 204 L402 204 L453 255 C455 265 456 278 456 292 L456 292 Z M364 290 C364 286 364 282 363 278 L135 278 C147 341 208 386 265 386 C325 386 364 335 364 290 L364 290 Z " />
<glyph glyph-name="afii10072" unicode="&#x436;" horiz-adv-x="705" d="M398 712 L307 712 L307 243 L306 243 L128 453 L20 453 L204 235 L0 0 L118 0 L306 219 L307 219 L307 0 L398 0 L398 219 L399 219 L587 0 L705 0 L501 235 L685 453 L577 453 L399 243 L398 243 L398 712 Z " />
<glyph glyph-name="afii10073" unicode="&#x437;" horiz-adv-x="373" d="M100 204 L152 204 C201 204 247 182 247 136 C247 89 200 66 152 66 C109 66 75 75 34 95 L43 11 C76 -4 116 -11 160 -11 C262 -11 339 37 339 131 C339 189 296 235 255 248 C299 260 327 299 327 335 C327 423 254 464 161 464 C102 464 56 452 18 431 L35 354 C76 380 112 388 155 388 C195 388 236 367 236 329 C236 288 200 270 159 270 L100 270 L100 204 Z " />
<glyph glyph-name="afii10074" unicode="&#x438;" horiz-adv-x="506" d="M451 0 L451 453 L360 453 L360 162 C360 115 324 67 251 67 C175 67 146 115 146 162 L146 453 L55 453 L55 153 C55 52 128 -11 227 -11 C306 -11 347 19 367 59 L368 59 L368 0 L451 0 Z " />
<glyph glyph-name="afii10075" unicode="&#x439;" horiz-adv-x="506" d="M451 0 L451 453 L360 453 L360 162 C360 115 324 67 251 67 C175 67 146 115 146 162 L146 453 L55 453 L55 153 C55 52 128 -11 227 -11 C306 -11 347 19 367 59 L368 59 L368 0 L451 0 Z M254 599 C209 599 171 607 128 631 L111 556 C149 538 195 527 254 527 C313 527 359 538 397 556 L380 631 C337 607 299 599 254 599 L254 599 Z " />
<glyph glyph-name="afii10076" unicode="&#x43a;" horiz-adv-x="459" d="M458 0 L254 229 L452 453 L344 453 L152 237 L151 237 L151 712 L60 712 L60 0 L151 0 L151 213 L152 213 L340 0 L458 0 Z " />
<glyph glyph-name="afii10077" unicode="&#x43b;" horiz-adv-x="456" d="M20 0 L105 0 L187 202 C199 231 212 271 223 305 L225 305 C236 271 249 231 261 202 L344 0 L436 0 L247 461 L210 461 L20 0 Z " />
<glyph glyph-name="afii10078" unicode="&#x43c;" horiz-adv-x="604" d="M470 453 L358 235 C340 200 320 159 306 126 L304 126 C290 159 268 203 251 235 L138 453 L63 453 L24 0 L106 0 L124 205 C126 231 130 271 131 306 L133 306 C148 272 168 231 183 203 L289 -4 L315 -4 L420 203 C435 231 457 275 471 307 L473 307 C474 274 477 234 480 205 L498 0 L586 0 L545 453 L470 453 Z " />
<glyph glyph-name="afii10079" unicode="&#x43d;" horiz-adv-x="506" d="M360 204 L360 0 L451 0 L451 453 L360 453 L360 278 L146 278 L146 453 L55 453 L55 0 L146 0 L146 204 L360 204 Z " />
<glyph glyph-name="afii10080" unicode="&#x43e;" horiz-adv-x="551" d="M516 226 C516 367 411 464 276 464 C141 464 35 367 35 226 C35 86 141 -11 276 -11 C411 -11 516 86 516 226 L516 226 Z M424 224 C424 130 355 67 276 67 C196 67 127 130 127 224 C127 319 196 382 276 382 C355 382 424 319 424 224 L424 224 Z " />
<glyph glyph-name="afii10081" unicode="&#x43f;" horiz-adv-x="506" d="M451 0 L451 300 C451 401 378 464 279 464 C200 464 159 434 139 394 L138 394 L138 453 L55 453 L55 0 L146 0 L146 291 C146 338 182 386 255 386 C331 386 360 338 360 291 L360 0 L451 0 Z " />
<glyph glyph-name="afii10082" unicode="&#x440;" horiz-adv-x="533" d="M498 227 C498 384 379 464 279 464 C205 464 162 432 142 403 L141 403 L141 453 L55 453 L55 -231 L146 -231 L146 27 C163 9 219 -11 268 -11 C399 -11 498 87 498 227 L498 227 Z M406 224 C406 130 340 67 259 67 C198 67 160 96 146 112 L146 324 C164 351 201 382 259 382 C340 382 406 319 406 224 L406 224 Z " />
<glyph glyph-name="afii10083" unicode="&#x441;" horiz-adv-x="455" d="M420 426 C382 447 336 459 277 459 C155 459 35 372 35 226 C35 81 155 -6 277 -6 C321 -6 361 1 394 16 L403 100 C362 80 328 72 285 72 C204 72 127 130 127 224 C127 319 202 377 283 377 C326 377 362 369 403 343 L420 426 Z " />
<glyph glyph-name="afii10084" unicode="&#x442;" horiz-adv-x="783" d="M728 0 L728 300 C728 401 659 464 554 464 C487 464 432 433 407 397 C383 439 330 464 273 464 C198 464 159 434 140 394 L139 394 L139 453 L55 453 L55 0 L146 0 L146 291 C146 338 169 386 248 386 C330 386 346 338 346 291 L346 0 L437 0 L437 291 C437 338 460 386 539 386 C621 386 637 338 637 291 L637 0 L728 0 Z " />
<glyph glyph-name="afii10085" unicode="&#x443;" horiz-adv-x="469" d="M449 453 L362 453 L278 247 C267 220 250 178 237 144 L235 144 C224 180 208 220 197 248 L114 453 L20 453 L189 40 C136 -90 73 -143 -7 -178 L51 -236 C140 -196 214 -123 282 44 L449 453 Z " />
<glyph glyph-name="afii10086" unicode="&#x444;" horiz-adv-x="745" d="M327 712 L327 455 C307 460 285 464 265 464 C134 464 35 366 35 226 C35 69 154 -11 254 -11 C283 -11 307 -6 327 1 L327 -231 L418 -231 L418 -2 C437 -7 459 -11 480 -11 C611 -11 710 87 710 227 C710 384 591 464 491 464 C462 464 438 459 418 451 L418 712 L327 712 Z M274 67 C193 67 127 130 127 225 C127 319 193 382 274 382 C294 382 312 379 327 374 L327 76 C312 70 294 67 274 67 L274 67 Z M471 382 C552 382 618 319 618 224 C618 130 552 67 471 67 C450 67 433 70 418 75 L418 372 C433 378 451 382 471 382 L471 382 Z " />
<glyph glyph-name="afii10087" unicode="&#x445;" horiz-adv-x="451" d="M416 0 L276 233 L409 453 L311 453 L253 354 C243 337 234 321 225 305 L223 305 C214 322 205 338 196 354 L138 453 L41 453 L175 229 L35 0 L133 0 L195 104 C203 118 216 139 225 157 L227 157 C236 139 247 119 256 104 L318 0 L416 0 Z " />
<glyph glyph-name="afii10088" unicode="&#x446;" horiz-adv-x="518" d="M451 453 L360 453 L360 162 C360 115 324 67 251 67 C175 67 146 115 146 162 L146 453 L55 453 L55 153 C55 52 128 -11 227 -11 C306 -11 347 19 367 59 L368 59 C380 25 405 4 426 -6 L426 -161 L512 -142 L512 47 C484 52 451 80 451 122 L451 453 Z " />
<glyph glyph-name="afii10089" unicode="&#x447;" horiz-adv-x="492" d="M437 453 L346 453 L346 324 C346 277 313 229 245 229 C173 229 146 277 146 324 L146 453 L55 453 L55 315 C55 214 125 151 219 151 C287 151 324 175 345 209 L346 209 L346 0 L437 0 L437 453 Z " />
<glyph glyph-name="afii10090" unicode="&#x448;" horiz-adv-x="783" d="M55 453 L55 153 C55 52 124 -11 229 -11 C296 -11 351 20 376 56 C400 14 453 -11 510 -11 C585 -11 624 19 643 59 L644 59 L644 0 L728 0 L728 453 L637 453 L637 162 C637 115 614 67 535 67 C453 67 437 115 437 162 L437 453 L346 453 L346 162 C346 115 323 67 244 67 C162 67 146 115 146 162 L146 453 L55 453 Z " />
<glyph glyph-name="afii10091" unicode="&#x449;" horiz-adv-x="796" d="M728 453 L637 453 L637 162 C637 115 614 67 535 67 C453 67 437 115 437 162 L437 453 L346 453 L346 162 C346 115 323 67 244 67 C162 67 146 115 146 162 L146 453 L55 453 L55 153 C55 52 124 -11 229 -11 C296 -11 351 20 376 56 C400 14 453 -11 510 -11 C585 -11 624 19 643 59 L644 59 C656 25 682 4 703 -6 L703 -161 L789 -142 L789 47 C761 52 728 80 728 122 L728 453 Z " />
<glyph glyph-name="afii10092" unicode="&#x44a;" horiz-adv-x="517" d="M0 453 L-16 379 L91 379 L91 32 C120 13 192 -11 264 -11 C401 -11 487 65 487 172 C487 275 401 350 284 350 C244 350 197 335 182 321 L182 453 L0 453 Z M396 172 C396 109 345 67 259 67 C230 67 194 76 182 83 L182 243 C194 253 227 272 277 272 C344 272 396 231 396 172 L396 172 Z " />
<glyph glyph-name="afii10093" unicode="&#x44b;" horiz-adv-x="663" d="M146 453 L55 453 L55 32 C84 13 156 -11 228 -11 C365 -11 451 65 451 172 C451 275 365 350 248 350 C208 350 161 335 146 321 L146 453 Z M360 172 C360 109 309 67 223 67 C194 67 158 76 146 83 L146 243 C158 253 191 272 241 272 C308 272 360 231 360 172 L360 172 Z M608 0 L608 453 L516 453 L516 0 L608 0 Z " />
<glyph glyph-name="afii10094" unicode="&#x44c;" horiz-adv-x="481" d="M146 453 L55 453 L55 32 C84 13 156 -11 228 -11 C365 -11 451 65 451 172 C451 275 365 350 248 350 C208 350 161 335 146 321 L146 453 Z M360 172 C360 109 309 67 223 67 C194 67 158 76 146 83 L146 243 C158 253 191 272 241 272 C308 272 360 231 360 172 L360 172 Z " />
<glyph glyph-name="afii10095" unicode="&#x44d;" horiz-adv-x="455" d="M60 16 C93 1 133 -6 177 -6 C299 -6 419 81 419 226 C419 372 299 459 177 459 C118 459 72 447 34 426 L51 343 C92 369 128 377 171 377 C238 377 300 337 320 270 L114 270 L114 196 L325 196 C311 118 241 72 169 72 C126 72 92 80 51 100 L60 16 Z " />
<glyph glyph-name="afii10096" unicode="&#x44e;" horiz-adv-x="726" d="M691 226 C691 367 586 464 451 464 C333 464 238 390 215 278 L146 278 L146 453 L55 453 L55 0 L146 0 L146 204 L211 204 C221 76 323 -11 451 -11 C586 -11 691 86 691 226 L691 226 Z M599 224 C599 130 530 67 451 67 C371 67 302 130 302 224 C302 319 371 382 451 382 C530 382 599 319 599 224 L599 224 Z " />
<glyph glyph-name="afii10097" unicode="&#x44f;" horiz-adv-x="472" d="M106 0 L227 185 L326 185 L326 0 L417 0 L417 453 L188 453 C124 453 51 410 51 319 C51 256 88 215 132 196 L-1 0 L106 0 Z M145 319 C145 363 179 383 218 383 L326 383 L326 255 L218 255 C179 255 145 275 145 319 L145 319 Z " />
<glyph glyph-name="afii10071" unicode="&#x451;" horiz-adv-x="491" d="M456 292 C456 376 385 464 260 464 C155 464 35 380 35 226 C35 85 149 -11 278 -11 C339 -11 380 1 412 18 L422 106 C390 85 348 69 290 69 C184 69 132 148 129 204 L402 204 L453 255 C455 265 456 278 456 292 L456 292 Z M364 290 C364 286 364 282 363 278 L135 278 C147 341 208 386 265 386 C325 386 364 335 364 290 L364 290 Z M364 573 C364 588 335 618 320 618 C305 618 276 588 276 573 C276 559 305 529 320 529 C335 529 364 559 364 573 L364 573 Z M234 573 C234 588 205 618 190 618 C176 618 146 588 146 573 C146 559 176 529 190 529 C205 529 234 559 234 573 L234 573 Z " />
<glyph glyph-name="afii10099" unicode="&#x452;" horiz-adv-x="442" d="M432 47 C403 52 381 76 381 117 L381 300 C381 407 308 464 207 464 C152 464 100 452 59 425 L77 350 C110 372 157 386 202 386 C266 386 290 353 290 312 L290 283 L184 273 C107 266 35 216 35 128 C35 55 91 -11 181 -11 C233 -11 281 7 302 60 C309 22 343 -4 374 -11 L432 47 Z M290 168 C290 107 243 66 189 66 C148 66 122 95 122 127 C122 160 145 195 203 200 L290 208 L290 168 Z M330 539 C287 571 228 627 192 677 C184 689 169 696 161 696 C145 696 112 663 112 648 C112 641 119 630 128 621 C169 577 216 543 268 512 L330 539 Z " />
<glyph glyph-name="afii10100" unicode="&#x453;" horiz-adv-x="491" d="M456 292 C456 376 385 464 260 464 C155 464 35 380 35 226 C35 85 149 -11 278 -11 C339 -11 380 1 412 18 L422 106 C390 85 348 69 290 69 C184 69 132 148 129 204 L402 204 L453 255 C455 265 456 278 456 292 L456 292 Z M364 290 C364 286 364 282 363 278 L135 278 C147 341 208 386 265 386 C325 386 364 335 364 290 L364 290 Z M354 539 C311 571 252 627 216 677 C208 689 193 696 185 696 C169 696 136 663 136 648 C136 641 143 630 152 621 C193 577 240 543 292 512 L354 539 Z " />
<glyph glyph-name="afii10101" unicode="&#x454;" horiz-adv-x="506" d="M451 0 L451 453 L360 453 L360 162 C360 115 324 67 251 67 C175 67 146 115 146 162 L146 453 L55 453 L55 153 C55 52 128 -11 227 -11 C306 -11 347 19 367 59 L368 59 L368 0 L451 0 Z M362 539 C319 571 260 627 224 677 C216 689 201 696 193 696 C177 696 144 663 144 648 C144 641 151 630 160 621 C201 577 248 543 300 512 L362 539 Z " />
<glyph glyph-name="afii10103" unicode="&#x456;" horiz-adv-x="515" d="M495 638 L406 638 L309 446 C295 419 277 379 264 349 L262 349 C249 379 231 418 217 446 L120 638 L20 638 L191 302 L70 302 L70 248 L210 248 L210 0 L305 0 L305 248 L445 248 L445 302 L324 302 L495 638 Z " />
<glyph glyph-name="afii10104" unicode="&#x457;" horiz-adv-x="551" d="M516 226 C516 367 411 464 276 464 C141 464 35 367 35 226 C35 86 141 -11 276 -11 C411 -11 516 86 516 226 L516 226 Z M424 224 C424 130 355 67 276 67 C196 67 127 130 127 224 C127 319 196 382 276 382 C355 382 424 319 424 224 L424 224 Z M384 539 C341 571 282 627 246 677 C238 689 223 696 215 696 C199 696 166 663 166 648 C166 641 173 630 182 621 C223 577 270 543 322 512 L384 539 Z " />
<glyph glyph-name="afii10106" unicode="&#x459;" horiz-adv-x="469" d="M449 453 L362 453 L278 247 C267 220 250 178 237 144 L235 144 C224 180 208 220 197 248 L114 453 L20 453 L189 40 C136 -90 73 -143 -7 -178 L51 -236 C140 -196 214 -123 282 44 L449 453 Z M343 539 C300 571 241 627 205 677 C197 689 182 696 174 696 C158 696 125 663 125 648 C125 641 132 630 141 621 C182 577 229 543 281 512 L343 539 Z " />
<glyph glyph-name="afii10107" unicode="&#x45a;" horiz-adv-x="517" d="M0 453 L-16 379 L91 379 L91 32 C120 13 192 -11 264 -11 C401 -11 487 65 487 172 C487 275 401 350 284 350 C244 350 197 335 182 321 L182 453 L0 453 Z M396 172 C396 109 345 67 259 67 C230 67 194 76 182 83 L182 243 C194 253 227 272 277 272 C344 272 396 231 396 172 L396 172 Z M367 539 C324 571 265 627 229 677 C221 689 206 696 198 696 C182 696 149 663 149 648 C149 641 156 630 165 621 C206 577 253 543 305 512 L367 539 Z " />
<glyph glyph-name="afii10108" unicode="&#x45b;" horiz-adv-x="455" d="M51 100 C92 80 126 72 169 72 C241 72 311 118 325 196 L114 196 L114 270 L320 270 C300 337 238 377 171 377 C128 377 92 369 51 343 L34 426 C72 447 118 459 177 459 C299 459 419 372 419 226 C419 81 299 -6 177 -6 C133 -6 93 1 60 16 L51 100 Z M336 539 C293 571 234 627 198 677 C190 689 175 696 167 696 C151 696 118 663 118 648 C118 641 125 630 134 621 C175 577 222 543 274 512 L336 539 Z " />
<glyph glyph-name="afii10109" unicode="&#x45c;" horiz-adv-x="663" d="M146 453 L55 453 L55 32 C84 13 156 -11 228 -11 C365 -11 451 65 451 172 C451 275 365 350 248 350 C208 350 161 335 146 321 L146 453 Z M360 172 C360 109 309 67 223 67 C194 67 158 76 146 83 L146 243 C158 253 191 272 241 272 C308 272 360 231 360 172 L360 172 Z M608 0 L608 453 L516 453 L516 0 L608 0 Z M440 539 C397 571 338 627 302 677 C294 689 279 696 271 696 C255 696 222 663 222 648 C222 641 229 630 238 621 C279 577 326 543 378 512 L440 539 Z " />
<glyph glyph-name="afii10110" unicode="&#x45e;" horiz-adv-x="726" d="M691 226 C691 367 586 464 451 464 C333 464 238 390 215 278 L146 278 L146 453 L55 453 L55 0 L146 0 L146 204 L211 204 C221 76 323 -11 451 -11 C586 -11 691 86 691 226 L691 226 Z M599 224 C599 130 530 67 451 67 C371 67 302 130 302 224 C302 319 371 382 451 382 C530 382 599 319 599 224 L599 224 Z M472 539 C429 571 370 627 334 677 C326 689 311 696 303 696 C287 696 254 663 254 648 C254 641 261 630 270 621 C311 577 358 543 410 512 L472 539 Z " />
<glyph glyph-name="afii10193" unicode="&#x45f;" horiz-adv-x="472" d="M-1 0 L132 196 C88 215 51 256 51 319 C51 410 124 453 188 453 L417 453 L417 0 L326 0 L326 185 L227 185 L106 0 L-1 0 Z M145 319 C145 275 179 255 218 255 L326 255 L326 383 L218 383 C179 383 145 363 145 319 L145 319 Z M345 539 C302 571 243 627 207 677 C199 689 184 696 176 696 C160 696 127 663 127 648 C127 641 134 630 143 621 C184 577 231 543 283 512 L345 539 Z " />
<glyph glyph-name="afii10050" unicode="&#x490;" horiz-adv-x="455" d="M306 0 L306 83 C339 85 368 92 394 104 L403 188 C362 168 328 160 285 160 C204 160 127 218 127 312 C127 407 202 465 283 465 C326 465 362 457 403 431 L420 514 C388 531 351 543 306 546 L306 638 L249 638 L249 545 C137 533 35 449 35 314 C35 180 137 96 249 84 L249 0 L306 0 Z " />
<glyph glyph-name="endash" unicode="&#x2013;" horiz-adv-x="500" d="M502 195 L502 257 L0 257 L0 195 L502 195 Z " />
<glyph glyph-name="emdash" unicode="&#x2014;" horiz-adv-x="1000" d="M1002 195 L1002 257 L0 257 L0 195 L1002 195 Z " />
<glyph glyph-name="quoteleft" unicode="&#x2018;" horiz-adv-x="198" d="M160 469 C160 485 130 515 109 519 C109 556 130 608 160 644 L128 650 C86 610 38 524 38 469 C38 446 82 409 99 409 C118 409 160 447 160 469 L160 469 Z " />
<glyph glyph-name="quoteright" unicode="&#x2019;" horiz-adv-x="198" d="M160 591 C160 614 116 651 99 651 C80 651 38 613 38 591 C38 575 68 545 89 541 C89 504 68 452 38 416 L70 410 C112 450 160 536 160 591 L160 591 Z " />
<glyph glyph-name="quotesinglbase" unicode="&#x201a;" horiz-adv-x="198" d="M160 50 C160 73 116 110 99 110 C80 110 38 72 38 50 C38 34 68 4 89 0 C89 -37 68 -89 38 -125 L70 -131 C112 -91 160 -5 160 50 L160 50 Z " />
<glyph glyph-name="quotedblleft" unicode="&#x201c;" horiz-adv-x="368" d="M348 706 L312 713 C265 668 210 572 210 532 C210 508 254 471 271 471 C289 471 332 509 332 532 C332 547 300 577 283 580 C287 610 311 660 348 706 L348 706 Z M175 706 L140 712 C93 668 38 572 38 531 C38 508 82 471 99 471 C117 471 160 509 160 531 C160 547 128 577 111 579 C115 610 139 660 175 706 L175 706 Z " />
<glyph glyph-name="quotedblright" unicode="&#x201d;" horiz-adv-x="370" d="M332 591 C332 614 288 651 271 651 C252 651 210 613 210 591 C210 575 240 545 261 541 C261 504 240 452 210 416 L242 410 C284 450 332 536 332 591 L332 591 Z M160 591 C160 614 116 651 99 651 C80 651 38 613 38 591 C38 575 68 545 89 541 C89 504 68 452 38 416 L70 410 C112 450 160 536 160 591 L160 591 Z " />
<glyph glyph-name="quotedblbase" unicode="&#x201e;" horiz-adv-x="370" d="M332 50 C332 73 288 110 271 110 C252 110 210 72 210 50 C210 34 240 4 261 0 C261 -37 240 -89 210 -125 L242 -131 C284 -91 332 -5 332 50 L332 50 Z M160 50 C160 73 116 110 99 110 C80 110 38 72 38 50 C38 34 68 4 89 0 C89 -37 68 -89 38 -125 L70 -131 C112 -91 160 -5 160 50 L160 50 Z " />
<glyph glyph-name="dagger" unicode="&#x2020;" horiz-adv-x="395" d="M355 371 L355 462 L242 444 L244 557 L152 557 L154 444 L40 462 L40 371 L156 389 L170 -231 L225 -231 L240 389 L355 371 Z " />
<glyph glyph-name="daggerdbl" unicode="&#x2021;" horiz-adv-x="395" d="M355 -136 L355 -45 L240 -63 L235 163 L240 389 L355 371 L355 462 L242 444 L244 557 L152 557 L154 444 L40 462 L40 371 L156 389 L161 163 L156 -63 L40 -45 L40 -136 L154 -118 L152 -231 L244 -231 L242 -118 L355 -136 Z " />
<glyph glyph-name="bullet" unicode="&#x2022;" horiz-adv-x="375" d="M335 277 C335 364 271 423 188 423 C105 423 40 364 40 277 C40 191 105 132 188 132 C271 132 335 191 335 277 L335 277 Z " />
<glyph glyph-name="ellipsis" unicode="&#x2026;" horiz-adv-x="595" d="M557 50 C557 69 516 110 495 110 C475 110 434 69 434 50 C434 30 475 -11 495 -11 C516 -11 557 30 557 50 L557 50 Z M358 50 C358 69 317 110 297 110 C276 110 236 69 236 50 C236 30 276 -11 297 -11 C317 -11 358 30 358 50 L358 50 Z M160 50 C160 69 119 110 99 110 C79 110 38 69 38 50 C38 30 79 -11 99 -11 C119 -11 160 30 160 50 L160 50 Z " />
<glyph glyph-name="perthousand" unicode="&#x2030;" horiz-adv-x="1057" d="M1020 132 C1020 215 959 275 877 275 C796 275 735 215 735 132 C735 46 796 -12 877 -12 C959 -12 1020 46 1020 132 L1020 132 Z M946 132 C946 86 914 56 877 56 C839 56 809 86 809 132 C809 177 839 204 877 204 C914 204 946 177 946 132 L946 132 Z M659 132 C659 215 598 275 517 275 C435 275 374 215 374 132 C374 46 435 -12 517 -12 C598 -12 659 46 659 132 L659 132 Z M585 132 C585 86 554 56 517 56 C479 56 448 86 448 132 C448 177 479 204 517 204 C554 204 585 177 585 132 L585 132 Z M631 626 L587 663 L62 13 L106 -24 L631 626 Z M320 508 C320 592 259 651 177 651 C96 651 35 592 35 508 C35 422 96 364 177 364 C259 364 320 422 320 508 L320 508 Z M246 508 C246 462 214 433 177 433 C139 433 109 462 109 508 C109 553 139 581 177 581 C214 581 246 553 246 508 L246 508 Z " />
<glyph glyph-name="guilsinglleft" unicode="&#x2039;" horiz-adv-x="211" d="M173 105 C156 148 138 188 115 226 C138 264 156 304 173 347 L160 377 C131 339 82 287 37 254 C27 246 20 233 20 226 C20 219 27 206 37 198 C82 165 131 113 160 75 L173 105 Z " />
<glyph glyph-name="guilsinglright" unicode="&#x203a;" horiz-adv-x="211" d="M191 226 C191 233 184 246 174 254 C129 287 79 339 51 377 L38 347 C54 304 72 264 96 226 C72 188 54 148 38 105 L51 75 C79 113 129 165 174 198 C184 206 191 219 191 226 L191 226 Z " />
<glyph glyph-name="Euro" unicode="&#x20ac;" horiz-adv-x="489" d="M349 291 L177 291 C177 300 176 309 176 318 C176 329 176 340 177 351 L348 351 L358 405 L184 405 C206 518 270 566 339 566 C377 566 409 557 433 541 L449 620 C423 634 390 647 332 647 C222 647 118 567 91 405 L10 405 L10 351 L85 351 C84 341 84 330 84 319 C84 309 85 300 85 291 L10 291 L10 237 L90 237 C116 70 220 -9 332 -9 C368 -9 407 -3 428 10 L437 93 C411 79 381 71 340 71 C274 71 205 119 183 237 L339 237 L349 291 Z " />
<glyph glyph-name="afii61352" unicode="&#x2116;" horiz-adv-x="1059" d="M637 -14 L637 638 L540 638 L540 336 C540 290 540 235 542 186 L540 185 C501 233 443 297 406 338 L132 638 L65 638 L65 0 L162 0 L162 320 C162 368 162 422 160 480 L162 481 C206 429 261 365 309 313 L608 -14 L637 -14 Z M991 496 C991 579 930 639 849 639 C767 639 706 579 706 496 C706 410 767 352 849 352 C930 352 991 410 991 496 L991 496 Z M917 496 C917 450 886 420 849 420 C811 420 780 450 780 496 C780 541 811 568 849 568 C886 568 917 541 917 496 L917 496 Z M706 284 L706 217 L991 217 L991 284 L706 284 Z " />
<glyph glyph-name="trademark" unicode="&#x2122;" horiz-adv-x="416" d="M382 453 L367 638 L342 638 L278 510 L212 638 L188 638 L173 453 L207 453 L215 557 L269 453 L282 453 L338 559 L347 453 L382 453 Z M161 606 L161 638 L20 638 L20 606 L73 606 L73 453 L108 453 L108 606 L161 606 Z " />
<glyph glyph-name="radical" unicode="&#x221a;" horiz-adv-x="559" d="M547 633 L547 712 L414 712 L261 341 C237 284 207 206 188 156 L186 156 C180 175 174 189 168 205 L128 303 L28 303 L16 216 L72 216 L164 -8 L201 -8 L467 633 L547 633 Z " />
<glyph glyph-name="approxequal" unicode="&#x2248;" horiz-adv-x="455" d="M415 351 L399 426 C375 400 345 381 303 381 C276 381 255 393 232 403 C211 413 189 422 160 422 C106 422 69 405 40 373 L57 299 C82 325 111 344 152 344 C176 344 198 333 223 322 C244 313 267 303 296 303 C350 303 387 319 415 351 L415 351 Z M415 179 L399 254 C375 228 345 209 303 209 C276 209 255 221 232 231 C211 241 189 250 160 250 C106 250 69 233 40 201 L57 127 C82 153 111 172 152 172 C176 172 198 161 223 150 C244 141 267 131 296 131 C350 131 387 147 415 179 L415 179 Z " />
<glyph glyph-name="lessequal" unicode="&#x2264;" horiz-adv-x="454" d="M414 100 L414 182 L113 277 L414 373 L414 455 L40 331 L40 224 L414 100 Z M414 0 L414 78 L40 78 L40 0 L414 0 Z " />
<glyph glyph-name="greaterequal" unicode="&#x2265;" horiz-adv-x="454" d="M414 224 L414 331 L40 455 L40 373 L341 277 L40 182 L40 100 L414 224 Z M414 0 L414 78 L40 78 L40 0 L414 0 Z " />
</font>
</svg>
